<svg width="509" height="428" viewBox="0 0 509 428" fill="none" xmlns="http://www.w3.org/2000/svg">
<rect x="1" y="62" width="507" height="365" rx="14" fill="#2C2C2C" stroke="black" stroke-width="2"/>
<rect x="30" y="338" width="218" height="60" rx="12" fill="#696969"/>
<rect x="261" y="338" width="218" height="60" rx="12" fill="#006FE4"/>
<circle cx="43.5" cy="103.5" r="12.5" fill="#FF4443"/>
<circle cx="79.5" cy="103.5" r="12.5" fill="#FFBD00"/>
<circle cx="115.5" cy="103.5" r="12.5" fill="#00D444"/>
<path d="M263.16 167L325.947 275.75C329.796 282.417 324.985 290.75 317.287 290.75H191.713C184.015 290.75 179.204 282.417 183.053 275.75L245.84 167C249.689 160.333 259.311 160.333 263.16 167Z" fill="url(#paint0_linear)" stroke="white" stroke-width="10"/>
<rect x="248" y="191" width="13" height="65" rx="6.5" fill="white"/>
<rect x="248" y="264" width="13" height="12" rx="6" fill="white"/>
<g filter="url(#filter0_d)">
<rect x="212" y="5" width="276" height="72" rx="15" fill="#2C2C2C"/>
<rect x="213" y="6" width="274" height="70" rx="14" stroke="black" stroke-width="2"/>
</g>
<rect x="245" y="19" width="176" height="13" rx="6.5" fill="#C4C4C4" fill-opacity="0.25"/>
<rect x="222" y="46" width="165" height="17" rx="8.5" fill="#C4C4C4" fill-opacity="0.25"/>
<rect x="222" y="19" width="13" height="13" rx="4" fill="#C4C4C4"/>
<defs>
<filter id="filter0_d" x="200" y="0" width="300" height="96" filterUnits="userSpaceOnUse" color-interpolation-filters="sRGB">
<feFlood flood-opacity="0" result="BackgroundImageFix"/>
<feColorMatrix in="SourceAlpha" type="matrix" values="0 0 0 0 0 0 0 0 0 0 0 0 0 0 0 0 0 0 127 0"/>
<feMorphology radius="2" operator="dilate" in="SourceAlpha" result="effect1_dropShadow"/>
<feOffset dy="7"/>
<feGaussianBlur stdDeviation="5"/>
<feColorMatrix type="matrix" values="0 0 0 0 0 0 0 0 0 0 0 0 0 0 0 0 0 0 0.25 0"/>
<feBlend mode="normal" in2="BackgroundImageFix" result="effect1_dropShadow"/>
<feBlend mode="normal" in="SourceGraphic" in2="effect1_dropShadow" result="shape"/>
</filter>
<linearGradient id="paint0_linear" x1="254.5" y1="142" x2="254.5" y2="347" gradientUnits="userSpaceOnUse">
<stop stop-color="#FDE92A"/>
<stop offset="1" stop-color="#E9AC00"/>
</linearGradient>
</defs>
</svg>
